<svg viewBox="618 402 316 130" fill="none" xmlns="http://www.w3.org/2000/svg">
<path d="M630.96 460.648H616.24V450.664C620.251 450.664 623.451 450.323 625.84 449.64C628.315 448.957 630.277 447.848 631.728 446.312C633.179 444.691 634.459 442.387 635.568 439.4H645.04V529H630.96V460.648ZM682.85 530.28C675.767 530.28 670.306 528.403 666.466 524.648C662.711 520.808 660.834 515.304 660.834 508.136V500.2C660.834 495.763 661.559 492.051 663.01 489.064C664.461 485.992 666.807 483.603 670.05 481.896V481.64C667.063 480.019 664.845 477.8 663.394 474.984C662.029 472.083 661.346 468.413 661.346 463.976V460.264C661.346 453.096 663.181 447.635 666.85 443.88C670.605 440.04 675.938 438.12 682.85 438.12C689.762 438.12 695.053 440.04 698.722 443.88C702.477 447.635 704.354 453.096 704.354 460.264V463.976C704.354 472.509 701.453 478.397 695.65 481.64V481.896C698.893 483.603 701.239 485.992 702.69 489.064C704.141 492.051 704.866 495.763 704.866 500.2V508.136C704.866 515.304 702.946 520.808 699.106 524.648C695.351 528.403 689.933 530.28 682.85 530.28ZM682.85 475.88C687.799 475.88 690.274 472.893 690.274 466.92V459.88C690.274 453.907 687.799 450.92 682.85 450.92C677.901 450.92 675.426 453.907 675.426 459.88V466.92C675.426 472.893 677.901 475.88 682.85 475.88ZM682.85 517.48C688.141 517.48 690.786 514.109 690.786 507.368V498.792C690.786 492.051 688.141 488.68 682.85 488.68C677.559 488.68 674.914 492.051 674.914 498.792V507.368C674.914 514.109 677.559 517.48 682.85 517.48ZM733.588 530.28C726.761 530.28 721.556 528.36 717.972 524.52C714.388 520.595 712.596 515.005 712.596 507.752V506.088H725.908V508.648C725.908 514.536 728.34 517.48 733.204 517.48C735.849 517.48 737.812 516.669 739.092 515.048C740.372 513.427 741.012 510.568 741.012 506.472V489.32H740.756C738.281 494.525 734.015 497.128 727.956 497.128C722.836 497.128 718.953 495.379 716.308 491.88C713.663 488.381 712.34 483.304 712.34 476.648V460.648C712.34 453.48 714.175 447.933 717.844 444.008C721.513 440.083 726.804 438.12 733.716 438.12C740.628 438.12 745.919 440.083 749.588 444.008C753.257 447.933 755.092 453.48 755.092 460.648V506.984C755.092 522.515 747.924 530.28 733.588 530.28ZM733.716 484.328C738.58 484.328 741.012 481.384 741.012 475.496V459.624C741.012 453.821 738.58 450.92 733.716 450.92C728.852 450.92 726.42 453.821 726.42 459.624V475.496C726.42 481.384 728.852 484.328 733.716 484.328ZM785.35 530.28C778.438 530.28 773.147 528.317 769.478 524.392C765.809 520.467 763.974 514.92 763.974 507.752V460.648C763.974 453.48 765.809 447.933 769.478 444.008C773.147 440.083 778.438 438.12 785.35 438.12C792.262 438.12 797.553 440.083 801.222 444.008C804.891 447.933 806.726 453.48 806.726 460.648V507.752C806.726 514.92 804.891 520.467 801.222 524.392C797.553 528.317 792.262 530.28 785.35 530.28ZM785.35 517.48C790.214 517.48 792.646 514.536 792.646 508.648V459.752C792.646 453.864 790.214 450.92 785.35 450.92C780.486 450.92 778.054 453.864 778.054 459.752V508.648C778.054 514.536 780.486 517.48 785.35 517.48Z" fill="white"/>
<path d="M811.384 404.6H814.936L817.24 421.976H817.304L819.608 404.6H822.84L819.448 427H814.776L811.384 404.6ZM824.531 404.6H834.131V407.8H828.051V413.72H832.883V416.92H828.051V423.8H834.131V427H824.531V404.6ZM836.156 404.6H840.572L843.996 418.008H844.06V404.6H847.196V427H843.58L839.356 410.648H839.292V427H836.156V404.6ZM852.564 407.8H848.884V404.6H859.764V407.8H856.084V427H852.564V407.8ZM866.588 427.32C864.882 427.32 863.58 426.84 862.684 425.88C861.788 424.899 861.34 423.501 861.34 421.688V404.6H864.86V421.944C864.86 422.712 865.01 423.267 865.308 423.608C865.628 423.949 866.076 424.12 866.652 424.12C867.228 424.12 867.666 423.949 867.964 423.608C868.284 423.267 868.444 422.712 868.444 421.944V404.6H871.836V421.688C871.836 423.501 871.388 424.899 870.492 425.88C869.596 426.84 868.295 427.32 866.588 427.32ZM874.343 404.6H879.559C881.373 404.6 882.695 405.027 883.527 405.88C884.359 406.712 884.775 408.003 884.775 409.752V411.128C884.775 413.453 884.007 414.925 882.471 415.544V415.608C883.325 415.864 883.922 416.387 884.263 417.176C884.626 417.965 884.807 419.021 884.807 420.344V424.28C884.807 424.92 884.829 425.443 884.871 425.848C884.914 426.232 885.021 426.616 885.191 427H881.607C881.479 426.637 881.394 426.296 881.351 425.976C881.309 425.656 881.287 425.08 881.287 424.248V420.152C881.287 419.128 881.117 418.413 880.775 418.008C880.455 417.603 879.89 417.4 879.079 417.4H877.863V427H874.343V404.6ZM879.143 414.2C879.847 414.2 880.37 414.019 880.711 413.656C881.074 413.293 881.255 412.685 881.255 411.832V410.104C881.255 409.293 881.106 408.707 880.807 408.344C880.53 407.981 880.082 407.8 879.463 407.8H877.863V414.2H879.143ZM887.25 404.6H896.85V407.8H890.77V413.72H895.602V416.92H890.77V423.8H896.85V427H887.25V404.6ZM903.513 427.32C901.806 427.32 900.516 426.84 899.641 425.88C898.766 424.899 898.329 423.501 898.329 421.688V420.408H901.657V421.944C901.657 423.395 902.265 424.12 903.481 424.12C904.078 424.12 904.526 423.949 904.825 423.608C905.145 423.245 905.305 422.669 905.305 421.88C905.305 420.941 905.092 420.12 904.665 419.416C904.238 418.691 903.449 417.827 902.297 416.824C900.846 415.544 899.833 414.392 899.257 413.368C898.681 412.323 898.393 411.149 898.393 409.848C898.393 408.077 898.841 406.712 899.737 405.752C900.633 404.771 901.934 404.28 903.641 404.28C905.326 404.28 906.596 404.771 907.449 405.752C908.324 406.712 908.761 408.099 908.761 409.912V410.84H905.433V409.688C905.433 408.92 905.284 408.365 904.985 408.024C904.686 407.661 904.249 407.48 903.673 407.48C902.5 407.48 901.913 408.195 901.913 409.624C901.913 410.435 902.126 411.192 902.553 411.896C903.001 412.6 903.801 413.453 904.953 414.456C906.425 415.736 907.438 416.899 907.993 417.944C908.548 418.989 908.825 420.216 908.825 421.624C908.825 423.459 908.366 424.867 907.449 425.848C906.553 426.829 905.241 427.32 903.513 427.32Z" fill="white"/>
</svg>
