<svg viewBox="618 382 316 150" fill="none" xmlns="http://www.w3.org/2000/svg">
<path d="M630.96 460.648H616.24V450.664C620.251 450.664 623.451 450.323 625.84 449.64C628.315 448.957 630.277 447.848 631.728 446.312C633.179 444.691 634.459 442.387 635.568 439.4H645.04V529H630.96V460.648ZM682.85 530.28C675.767 530.28 670.306 528.403 666.466 524.648C662.711 520.808 660.834 515.304 660.834 508.136V500.2C660.834 495.763 661.559 492.051 663.01 489.064C664.461 485.992 666.807 483.603 670.05 481.896V481.64C667.063 480.019 664.845 477.8 663.394 474.984C662.029 472.083 661.346 468.413 661.346 463.976V460.264C661.346 453.096 663.181 447.635 666.85 443.88C670.605 440.04 675.938 438.12 682.85 438.12C689.762 438.12 695.053 440.04 698.722 443.88C702.477 447.635 704.354 453.096 704.354 460.264V463.976C704.354 472.509 701.453 478.397 695.65 481.64V481.896C698.893 483.603 701.239 485.992 702.69 489.064C704.141 492.051 704.866 495.763 704.866 500.2V508.136C704.866 515.304 702.946 520.808 699.106 524.648C695.351 528.403 689.933 530.28 682.85 530.28ZM682.85 475.88C687.799 475.88 690.274 472.893 690.274 466.92V459.88C690.274 453.907 687.799 450.92 682.85 450.92C677.901 450.92 675.426 453.907 675.426 459.88V466.92C675.426 472.893 677.901 475.88 682.85 475.88ZM682.85 517.48C688.141 517.48 690.786 514.109 690.786 507.368V498.792C690.786 492.051 688.141 488.68 682.85 488.68C677.559 488.68 674.914 492.051 674.914 498.792V507.368C674.914 514.109 677.559 517.48 682.85 517.48ZM733.588 530.28C726.761 530.28 721.556 528.36 717.972 524.52C714.388 520.595 712.596 515.005 712.596 507.752V506.088H725.908V508.648C725.908 514.536 728.34 517.48 733.204 517.48C735.849 517.48 737.812 516.669 739.092 515.048C740.372 513.427 741.012 510.568 741.012 506.472V489.32H740.756C738.281 494.525 734.015 497.128 727.956 497.128C722.836 497.128 718.953 495.379 716.308 491.88C713.663 488.381 712.34 483.304 712.34 476.648V460.648C712.34 453.48 714.175 447.933 717.844 444.008C721.513 440.083 726.804 438.12 733.716 438.12C740.628 438.12 745.919 440.083 749.588 444.008C753.257 447.933 755.092 453.48 755.092 460.648V506.984C755.092 522.515 747.924 530.28 733.588 530.28ZM733.716 484.328C738.58 484.328 741.012 481.384 741.012 475.496V459.624C741.012 453.821 738.58 450.92 733.716 450.92C728.852 450.92 726.42 453.821 726.42 459.624V475.496C726.42 481.384 728.852 484.328 733.716 484.328ZM785.35 530.28C778.438 530.28 773.147 528.317 769.478 524.392C765.809 520.467 763.974 514.92 763.974 507.752V460.648C763.974 453.48 765.809 447.933 769.478 444.008C773.147 440.083 778.438 438.12 785.35 438.12C792.262 438.12 797.553 440.083 801.222 444.008C804.891 447.933 806.726 453.48 806.726 460.648V507.752C806.726 514.92 804.891 520.467 801.222 524.392C797.553 528.317 792.262 530.28 785.35 530.28ZM785.35 517.48C790.214 517.48 792.646 514.536 792.646 508.648V459.752C792.646 453.864 790.214 450.92 785.35 450.92C780.486 450.92 778.054 453.864 778.054 459.752V508.648C778.054 514.536 780.486 517.48 785.35 517.48Z" fill="black"/>
<path d="M831.384 420.6H834.936L837.24 437.976H837.304L839.608 420.6H842.84L839.448 443H834.776L831.384 420.6ZM844.531 420.6H854.131V423.8H848.051V429.72H852.883V432.92H848.051V439.8H854.131V443H844.531V420.6ZM856.156 420.6H860.572L863.996 434.008H864.06V420.6H867.196V443H863.58L859.356 426.648H859.292V443H856.156V420.6ZM872.564 423.8H868.884V420.6H879.764V423.8H876.084V443H872.564V423.8ZM886.588 443.32C884.882 443.32 883.58 442.84 882.684 441.88C881.788 440.899 881.34 439.501 881.34 437.688V420.6H884.86V437.944C884.86 438.712 885.01 439.267 885.308 439.608C885.628 439.949 886.076 440.12 886.652 440.12C887.228 440.12 887.666 439.949 887.964 439.608C888.284 439.267 888.444 438.712 888.444 437.944V420.6H891.836V437.688C891.836 439.501 891.388 440.899 890.492 441.88C889.596 442.84 888.295 443.32 886.588 443.32ZM894.343 420.6H899.559C901.373 420.6 902.695 421.027 903.527 421.88C904.359 422.712 904.775 424.003 904.775 425.752V427.128C904.775 429.453 904.007 430.925 902.471 431.544V431.608C903.325 431.864 903.922 432.387 904.263 433.176C904.626 433.965 904.807 435.021 904.807 436.344V440.28C904.807 440.92 904.829 441.443 904.871 441.848C904.914 442.232 905.021 442.616 905.191 443H901.607C901.479 442.637 901.394 442.296 901.351 441.976C901.309 441.656 901.287 441.08 901.287 440.248V436.152C901.287 435.128 901.117 434.413 900.775 434.008C900.455 433.603 899.89 433.4 899.079 433.4H897.863V443H894.343V420.6ZM899.143 430.2C899.847 430.2 900.37 430.019 900.711 429.656C901.074 429.293 901.255 428.685 901.255 427.832V426.104C901.255 425.293 901.106 424.707 900.807 424.344C900.53 423.981 900.082 423.8 899.463 423.8H897.863V430.2H899.143ZM907.25 420.6H916.85V423.8H910.77V429.72H915.602V432.92H910.77V439.8H916.85V443H907.25V420.6ZM923.513 443.32C921.806 443.32 920.516 442.84 919.641 441.88C918.766 440.899 918.329 439.501 918.329 437.688V436.408H921.657V437.944C921.657 439.395 922.265 440.12 923.481 440.12C924.078 440.12 924.526 439.949 924.825 439.608C925.145 439.245 925.305 438.669 925.305 437.88C925.305 436.941 925.092 436.12 924.665 435.416C924.238 434.691 923.449 433.827 922.297 432.824C920.846 431.544 919.833 430.392 919.257 429.368C918.681 428.323 918.393 427.149 918.393 425.848C918.393 424.077 918.841 422.712 919.737 421.752C920.633 420.771 921.934 420.28 923.641 420.28C925.326 420.28 926.596 420.771 927.449 421.752C928.324 422.712 928.761 424.099 928.761 425.912V426.84H925.433V425.688C925.433 424.92 925.284 424.365 924.985 424.024C924.686 423.661 924.249 423.48 923.673 423.48C922.5 423.48 921.913 424.195 921.913 425.624C921.913 426.435 922.126 427.192 922.553 427.896C923.001 428.6 923.801 429.453 924.953 430.456C926.425 431.736 927.438 432.899 927.993 433.944C928.548 434.989 928.825 436.216 928.825 437.624C928.825 439.459 928.366 440.867 927.449 441.848C926.553 442.829 925.241 443.32 923.513 443.32Z" fill="black"/>
</svg>
